# xmcd
#
# Track frame offsets:
#	150
#	18269
#	38687
#	62213
#	92653
#	133913
#	160660
#	181502
#	194054
#	204598
#	225972
#	255666
#
# Disc length: 3660 seconds
#
# Revision: 0
# Processed by: cddbd v1.5.2PL0 Copyright (c) Steve Scherf et al.
# Submitted via: EasyCDDAExtractor 11.0.2.1
#
DISCID=970e4a0c
DTITLE=Bluesville Station - Ridin' The Warrego
DYEAR=2008
DGENRE=Blues
TTITLE0=Nothin' On You
TTITLE1=I'm The One
TTITLE2=Wastin' My Time
TTITLE3=Tales From The Squealin' Pig
TTITLE4=Goin' To Johanna
TTITLE5=I've Been Thinkin'
TTITLE6=The Feel
TTITLE7=Scratch My Back
TTITLE8=Dawn Patrol
TTITLE9=Bits And Pieces
TTITLE10=Blues Alone
TTITLE11=Poor Boy Blues
EXTD=
EXTT0=
EXTT1=
EXTT2=
EXTT3=
EXTT4=
EXTT5=
EXTT6=
EXTT7=
EXTT8=
EXTT9=
EXTT10=
EXTT11=
PLAYORDER=
